<svg width="31" height="31" viewBox="0 0 31 31" fill="none" xmlns="http://www.w3.org/2000/svg">
<mask id="mask0_1139_389" style="mask-type:luminance" maskUnits="userSpaceOnUse" x="0" y="2" width="31" height="9">
<path d="M0 2.96484H31V10.7471H0V2.96484Z" fill="white"/>
</mask>
<g mask="url(#mask0_1139_389)">
<path d="M0.751536 7.3891H20.7368C20.7788 7.59577 20.837 7.79759 20.9145 7.99457C20.9903 8.19155 21.084 8.38046 21.1922 8.56129C21.302 8.74212 21.4247 8.91165 21.5635 9.0715C21.7024 9.22973 21.8525 9.37665 22.0156 9.51066C22.1787 9.64467 22.353 9.76254 22.5371 9.86587C22.7212 9.97082 22.9117 10.058 23.1103 10.129C23.3089 10.2001 23.5123 10.2534 23.7206 10.2889C23.9289 10.3244 24.1388 10.3422 24.3487 10.3422C24.5602 10.3422 24.7701 10.3244 24.9784 10.2889C25.185 10.2534 25.3885 10.2001 25.5887 10.129C25.7873 10.058 25.9778 9.97082 26.1618 9.86587C26.3459 9.76254 26.5187 9.64467 26.6834 9.51066C26.8464 9.37665 26.9966 9.22973 27.1354 9.0715C27.2727 8.91165 27.397 8.74212 27.5068 8.56129C27.615 8.38046 27.7086 8.19155 27.7845 7.99457C27.8604 7.79759 27.9201 7.59577 27.9621 7.3891H30.2467C30.3452 7.3891 30.4389 7.37134 30.5293 7.33259C30.6197 7.29546 30.6988 7.24217 30.7683 7.17275C30.8377 7.10494 30.891 7.02421 30.9281 6.93379C30.9652 6.84337 30.9846 6.74973 30.9846 6.65285C30.9846 6.55436 30.9652 6.46072 30.9281 6.3703C30.891 6.27988 30.8377 6.19915 30.7683 6.13134C30.6988 6.06191 30.6197 6.00863 30.5293 5.9715C30.4389 5.93275 30.3452 5.91499 30.2467 5.91499H27.9589C27.9169 5.70832 27.8588 5.5065 27.7813 5.30952C27.7054 5.11254 27.6117 4.92363 27.5036 4.7428C27.3938 4.56358 27.2711 4.39244 27.1322 4.23259C26.9934 4.07436 26.8432 3.92744 26.6801 3.79342C26.5154 3.65941 26.3427 3.54155 26.1586 3.43822C25.9746 3.33327 25.784 3.24608 25.5854 3.17504C25.3868 3.10561 25.1834 3.05072 24.9751 3.0152C24.7668 2.97967 24.557 2.96191 24.3471 2.96191C24.1355 2.96191 23.9257 2.97967 23.7174 3.0152C23.5091 3.05072 23.3073 3.10561 23.1071 3.17504C22.9085 3.24608 22.7179 3.33327 22.5339 3.43822C22.3498 3.54155 22.1771 3.65941 22.0124 3.79342C21.8493 3.92744 21.6991 4.07436 21.5603 4.23259C21.423 4.39244 21.2987 4.56358 21.1889 4.7428C21.0808 4.92363 20.9871 5.11254 20.9112 5.30952C20.8337 5.5065 20.7756 5.70832 20.7336 5.91499H0.751536C0.653047 5.91499 0.559401 5.93275 0.468984 5.9715C0.378568 6.00863 0.299453 6.06191 0.230026 6.13134C0.160599 6.19915 0.107318 6.27988 0.0701823 6.3703C0.0330469 6.46072 0.0136719 6.55436 0.0136719 6.65285C0.0136719 6.74973 0.0330469 6.84337 0.0701823 6.93379C0.107318 7.02421 0.160599 7.10494 0.230026 7.17275C0.299453 7.24217 0.378568 7.29546 0.468984 7.33259C0.559401 7.37134 0.653047 7.3891 0.751536 7.3891ZM24.3471 4.43926C24.4924 4.43926 24.6377 4.45379 24.7798 4.48285C24.9218 4.5103 25.0607 4.55228 25.1947 4.60879C25.3287 4.66369 25.4563 4.7315 25.5774 4.81223C25.6968 4.89296 25.8099 4.98499 25.9116 5.08832C26.0149 5.19004 26.107 5.30306 26.1877 5.42254C26.2684 5.54363 26.3362 5.67119 26.3911 5.8052C26.4476 5.93921 26.4896 6.07806 26.5171 6.22014C26.5461 6.36223 26.5606 6.50754 26.5606 6.65285C26.5606 6.79655 26.5461 6.94186 26.5171 7.08395C26.4896 7.22603 26.4476 7.36488 26.3911 7.49889C26.3362 7.6329 26.2684 7.76046 26.1877 7.88155C26.107 8.00264 26.0149 8.11405 25.9116 8.21577C25.8099 8.3191 25.6968 8.41113 25.5774 8.49186C25.4563 8.57259 25.3287 8.6404 25.1947 8.6953C25.0607 8.75181 24.9218 8.79379 24.7798 8.82124C24.6377 8.8503 24.4924 8.86483 24.3471 8.86483C24.2034 8.86483 24.058 8.8503 23.916 8.82124C23.7739 8.79379 23.635 8.75181 23.501 8.6953C23.367 8.6404 23.2395 8.57259 23.1184 8.49186C22.9973 8.41113 22.8859 8.3191 22.7841 8.21577C22.6808 8.11405 22.5888 8.00264 22.508 7.88155C22.4273 7.76046 22.3595 7.6329 22.3046 7.49889C22.2481 7.36488 22.2061 7.22603 22.1787 7.08395C22.1496 6.94186 22.1351 6.79655 22.1351 6.65285C22.1351 6.50754 22.1496 6.36223 22.1787 6.22014C22.2061 6.07806 22.2481 5.93921 22.3046 5.8052C22.3595 5.67119 22.4273 5.54363 22.508 5.42254C22.5888 5.30306 22.6808 5.19004 22.7841 5.08832C22.8859 4.98499 22.9973 4.89296 23.1184 4.81223C23.2395 4.7315 23.367 4.66369 23.501 4.60879C23.635 4.55228 23.7739 4.5103 23.916 4.48285C24.058 4.45379 24.2034 4.43926 24.3471 4.43926Z" fill="#0E675F"/>
</g>
<path d="M30.2467 14.7617H19.111C19.069 14.555 19.0092 14.3532 18.9334 14.1562C18.8559 13.9608 18.7638 13.7719 18.654 13.5911C18.5459 13.4103 18.4215 13.2407 18.2827 13.0809C18.1454 12.921 17.9937 12.7741 17.8306 12.6417C17.6675 12.5077 17.4932 12.3882 17.3107 12.2849C17.1266 12.1816 16.9345 12.0944 16.7359 12.0233C16.5373 11.9523 16.3339 11.899 16.1256 11.8635C15.9189 11.8264 15.709 11.8086 15.4975 11.8086C15.286 11.8086 15.0777 11.8264 14.8695 11.8635C14.6612 11.899 14.4577 11.9523 14.2591 12.0233C14.0605 12.0944 13.8684 12.1816 13.686 12.2849C13.5019 12.3882 13.3275 12.5077 13.1645 12.6417C13.0014 12.7741 12.8496 12.921 12.7124 13.0809C12.5735 13.2407 12.4492 13.4103 12.341 13.5911C12.2312 13.7719 12.1392 13.9608 12.0617 14.1562C11.9858 14.3532 11.9261 14.555 11.8841 14.7617H0.751536C0.653047 14.7617 0.559401 14.781 0.468984 14.8182C0.378568 14.8553 0.299453 14.9086 0.230026 14.978C0.160599 15.0474 0.107318 15.1266 0.0701823 15.217C0.0330469 15.3074 0.0136719 15.401 0.0136719 15.4995C0.0136719 15.598 0.0330469 15.6917 0.0701823 15.7821C0.107318 15.8725 0.160599 15.9516 0.230026 16.021C0.299453 16.0905 0.378568 16.1437 0.468984 16.1809C0.559401 16.218 0.653047 16.2374 0.751536 16.2374H11.8873C11.9293 16.4441 11.989 16.6459 12.0649 16.8429C12.1424 17.0382 12.2345 17.2271 12.3442 17.408C12.4524 17.5888 12.5767 17.7583 12.7156 17.9182C12.8528 18.078 13.0046 18.2249 13.1677 18.3573C13.3308 18.4914 13.5051 18.6108 13.6876 18.7142C13.8716 18.8175 14.0638 18.9047 14.2624 18.9757C14.461 19.0468 14.6644 19.1001 14.8727 19.1356C15.0793 19.1727 15.2892 19.1905 15.5008 19.1905C15.7123 19.1905 15.9205 19.1727 16.1288 19.1356C16.3371 19.1001 16.5405 19.0468 16.7391 18.9757C16.9377 18.9047 17.1299 18.8175 17.3123 18.7142C17.4964 18.6108 17.6708 18.4914 17.8338 18.3573C17.9969 18.2249 18.1487 18.078 18.2859 17.9182C18.4248 17.7583 18.5491 17.5888 18.6573 17.408C18.7671 17.2271 18.8591 17.0382 18.9366 16.8429C19.0125 16.6459 19.0722 16.4441 19.1142 16.2374H30.2467C30.3452 16.2374 30.4389 16.218 30.5293 16.1809C30.6197 16.1437 30.6988 16.0905 30.7683 16.021C30.8377 15.9516 30.891 15.8725 30.9281 15.7821C30.9652 15.6917 30.9846 15.598 30.9846 15.4995C30.9846 15.401 30.9652 15.3074 30.9281 15.217C30.891 15.1266 30.8377 15.0474 30.7683 14.978C30.6988 14.9086 30.6197 14.8553 30.5293 14.8182C30.4389 14.781 30.3452 14.7617 30.2467 14.7617ZM15.4991 17.7115C15.3538 17.7115 15.2101 17.697 15.068 17.6695C14.9243 17.6405 14.7871 17.5985 14.6531 17.5436C14.5191 17.4871 14.3915 17.4193 14.2704 17.3385C14.1493 17.2578 14.0379 17.1658 13.9346 17.0641C13.8329 16.9607 13.7409 16.8493 13.6601 16.7282C13.5794 16.6071 13.5116 16.4796 13.4551 16.3456C13.4002 16.2116 13.3582 16.0743 13.3291 15.9306C13.3017 15.7885 13.2872 15.6448 13.2872 15.4995C13.2872 15.3542 13.3017 15.2105 13.3291 15.0684C13.3582 14.9247 13.4002 14.7875 13.4551 14.6535C13.5116 14.5195 13.5794 14.3919 13.6601 14.2708C13.7409 14.1497 13.8329 14.0383 13.9346 13.935C14.0379 13.8333 14.1493 13.7413 14.2704 13.6605C14.3915 13.5798 14.5191 13.512 14.6531 13.4555C14.7871 13.4006 14.9243 13.3586 15.068 13.3295C15.2101 13.3021 15.3538 13.2876 15.4991 13.2876C15.6445 13.2876 15.7882 13.3021 15.9302 13.3295C16.0739 13.3586 16.2112 13.4006 16.3452 13.4555C16.4792 13.512 16.6067 13.5798 16.7278 13.6605C16.8489 13.7413 16.9603 13.8333 17.0637 13.935C17.1654 14.0383 17.2574 14.1497 17.3382 14.2708C17.4189 14.3919 17.4867 14.5195 17.5432 14.6535C17.5981 14.7875 17.6401 14.9247 17.6691 15.0684C17.6966 15.2105 17.7111 15.3542 17.7111 15.4995C17.7111 15.6448 17.6966 15.7885 17.6691 15.9306C17.6401 16.0743 17.5981 16.2116 17.5432 16.3456C17.4867 16.4796 17.4189 16.6071 17.3382 16.7282C17.2574 16.8493 17.1654 16.9607 17.0637 17.0641C16.9603 17.1658 16.8489 17.2578 16.7278 17.3385C16.6067 17.4193 16.4792 17.4871 16.3452 17.5436C16.2112 17.5985 16.0739 17.6405 15.9302 17.6695C15.7882 17.697 15.6445 17.7115 15.4991 17.7115Z" fill="#0E675F"/>
<mask id="mask1_1139_389" style="mask-type:luminance" maskUnits="userSpaceOnUse" x="0" y="20" width="31" height="9">
<path d="M0 20.2529H31V28.074H0V20.2529Z" fill="white"/>
</mask>
<g mask="url(#mask1_1139_389)">
<path d="M30.2467 23.6113H10.2614C10.2195 23.4046 10.1613 23.2028 10.0838 23.0058C10.0079 22.8088 9.9143 22.6199 9.80612 22.4391C9.69633 22.2583 9.57362 22.0887 9.43477 21.9289C9.29591 21.7707 9.14575 21.6237 8.98268 21.4897C8.81961 21.3557 8.64523 21.2378 8.46117 21.1345C8.27711 21.0296 8.08659 20.9424 7.88799 20.8713C7.6894 20.8003 7.48596 20.747 7.27768 20.7115C7.0694 20.676 6.8595 20.6582 6.64961 20.6582C6.4381 20.6582 6.2282 20.676 6.01992 20.7115C5.81326 20.747 5.60982 20.8003 5.40961 20.8713C5.21102 20.9424 5.02049 21.0296 4.83643 21.1345C4.65237 21.2378 4.47961 21.3557 4.31492 21.4897C4.15185 21.6237 4.00169 21.7707 3.86284 21.9289C3.7256 22.0887 3.60128 22.2583 3.49148 22.4391C3.38331 22.6199 3.28966 22.8088 3.21378 23.0058C3.13789 23.2028 3.07815 23.4046 3.03617 23.6113H0.751536C0.653047 23.6113 0.559401 23.629 0.468984 23.6678C0.378568 23.7049 0.299453 23.7582 0.230026 23.8276C0.160599 23.8954 0.107318 23.9762 0.0701823 24.0666C0.0330469 24.157 0.0136719 24.2507 0.0136719 24.3475C0.0136719 24.446 0.0330469 24.5397 0.0701823 24.6301C0.107318 24.7205 0.160599 24.8012 0.230026 24.869C0.299453 24.9385 0.378568 24.9917 0.468984 25.0289C0.559401 25.0676 0.653047 25.0854 0.751536 25.0854H3.0394C3.08138 25.2921 3.1395 25.4939 3.21701 25.6909C3.29289 25.8878 3.38654 26.0767 3.49471 26.2576C3.60451 26.4368 3.72721 26.6079 3.86607 26.7678C4.00492 26.926 4.15508 27.0729 4.31815 27.207C4.48284 27.341 4.6556 27.4588 4.83966 27.5622C5.02372 27.6671 5.21424 27.7543 5.41284 27.8253C5.61143 27.8948 5.81487 27.9497 6.02315 27.9852C6.23143 28.0207 6.44133 28.0385 6.65122 28.0385C6.86273 28.0385 7.07263 28.0207 7.28091 27.9852C7.48919 27.9497 7.69102 27.8948 7.89122 27.8253C8.08982 27.7543 8.28034 27.6671 8.4644 27.5622C8.64846 27.4588 8.82122 27.341 8.98591 27.207C9.14898 27.0729 9.29914 26.926 9.43799 26.7678C9.57523 26.6079 9.69956 26.4368 9.80935 26.2576C9.91753 26.0767 10.0112 25.8878 10.0871 25.6909C10.1646 25.4939 10.2227 25.2921 10.2647 25.0854H30.2467C30.3452 25.0854 30.4389 25.0676 30.5293 25.0289C30.6197 24.9917 30.6988 24.9385 30.7683 24.869C30.8377 24.8012 30.891 24.7205 30.9281 24.6301C30.9652 24.5397 30.9846 24.446 30.9846 24.3475C30.9846 24.2507 30.9652 24.157 30.9281 24.0666C30.891 23.9762 30.8377 23.8954 30.7683 23.8276C30.6988 23.7582 30.6197 23.7049 30.5293 23.6678C30.4389 23.629 30.3452 23.6113 30.2467 23.6113ZM6.65122 26.5611C6.50591 26.5611 6.3606 26.5466 6.21852 26.5175C6.07643 26.4901 5.93758 26.4481 5.80357 26.3916C5.66956 26.3367 5.54201 26.2689 5.42091 26.1882C5.30143 26.1074 5.18841 26.0154 5.08669 25.9121C4.98336 25.8103 4.89133 25.6973 4.8106 25.5778C4.72987 25.4567 4.66206 25.3292 4.60716 25.1952C4.55065 25.0612 4.50867 24.9223 4.48122 24.7802C4.45216 24.6382 4.43763 24.4928 4.43763 24.3475C4.43763 24.2038 4.45216 24.0585 4.48122 23.9164C4.50867 23.7743 4.55065 23.6355 4.60716 23.5015C4.66206 23.3675 4.72987 23.2399 4.8106 23.1188C4.89133 22.9977 4.98336 22.8863 5.08669 22.7846C5.18841 22.6813 5.30143 22.5892 5.42091 22.5085C5.54201 22.4278 5.66956 22.36 5.80357 22.3051C5.93758 22.2486 6.07643 22.2066 6.21852 22.1791C6.3606 22.1501 6.50591 22.1355 6.65122 22.1355C6.79492 22.1355 6.94023 22.1501 7.08232 22.1791C7.2244 22.2066 7.36326 22.2486 7.49727 22.3051C7.63128 22.36 7.75883 22.4278 7.87992 22.5085C8.00102 22.5892 8.11242 22.6813 8.21414 22.7846C8.31747 22.8863 8.4095 22.9977 8.49023 23.1188C8.57096 23.2399 8.63878 23.3675 8.69367 23.5015C8.75018 23.6355 8.79216 23.7743 8.81961 23.9164C8.84867 24.0585 8.8632 24.2038 8.8632 24.3475C8.8632 24.4928 8.84867 24.6382 8.81961 24.7802C8.79216 24.9223 8.75018 25.0612 8.69367 25.1952C8.63878 25.3292 8.57096 25.4567 8.49023 25.5778C8.4095 25.6973 8.31747 25.8103 8.21414 25.9121C8.11242 26.0154 8.00102 26.1074 7.87992 26.1882C7.75883 26.2689 7.63128 26.3367 7.49727 26.3916C7.36326 26.4481 7.2244 26.4901 7.08232 26.5175C6.94023 26.5466 6.79492 26.5611 6.65122 26.5611Z" fill="#0E675F"/>
</g>
</svg>