<svg xmlns="http://www.w3.org/2000/svg" xmlns:xlink="http://www.w3.org/1999/xlink" width="45" zoomAndPan="magnify" viewBox="0 0 33.75 33.749998" height="45" preserveAspectRatio="xMidYMid meet" version="1.0"><defs><clipPath id="7d03deeaa7"><path d="M 0 10 L 33.5 10 L 33.5 29 L 0 29 Z M 0 10 " clip-rule="nonzero"/></clipPath></defs><path fill="#0e675f" d="M 16.75 26.351562 C 16.539062 26.351562 16.324219 26.242188 16.203125 26.046875 C 16.183594 26.019531 15.054688 24.238281 12.929688 22.964844 C 10.117188 21.296875 6.957031 21.269531 3.523438 22.902344 C 3.328125 22.992188 3.085938 22.984375 2.902344 22.863281 C 2.714844 22.742188 2.605469 22.539062 2.605469 22.316406 L 2.605469 7.417969 C 2.605469 7.167969 2.746094 6.945312 2.976562 6.835938 C 7.78125 4.542969 11.425781 5.648438 13.644531 6.984375 C 16.027344 8.410156 17.25 10.378906 17.308594 10.453125 C 17.371094 10.554688 17.398438 10.675781 17.398438 10.796875 L 17.398438 25.703125 C 17.398438 25.988281 17.207031 26.242188 16.9375 26.324219 C 16.871094 26.34375 16.804688 26.351562 16.75 26.351562 Z M 8.382812 20.425781 C 10.582031 20.425781 12.34375 21.121094 13.632812 21.890625 C 14.683594 22.519531 15.507812 23.253906 16.109375 23.882812 L 16.109375 10.992188 C 15.796875 10.535156 14.710938 9.117188 12.929688 8.058594 C 10.21875 6.445312 7.179688 6.371094 3.886719 7.828125 L 3.886719 21.34375 C 5.535156 20.683594 7.039062 20.425781 8.382812 20.425781 Z M 8.382812 20.425781 " fill-opacity="1" fill-rule="nonzero"/><path fill="#0e675f" d="M 16.75 26.351562 C 16.695312 26.351562 16.628906 26.34375 16.574219 26.324219 C 16.296875 26.242188 16.109375 25.988281 16.109375 25.703125 L 16.109375 10.804688 C 16.109375 10.683594 16.148438 10.5625 16.203125 10.460938 C 16.257812 10.378906 17.484375 8.421875 19.867188 6.992188 C 22.074219 5.667969 25.722656 4.5625 30.535156 6.84375 C 30.757812 6.945312 30.90625 7.179688 30.90625 7.429688 L 30.90625 22.335938 C 30.90625 22.558594 30.792969 22.761719 30.609375 22.882812 C 30.421875 23.003906 30.191406 23.011719 29.988281 22.917969 C 26.554688 21.285156 23.390625 21.304688 20.582031 22.984375 C 18.449219 24.253906 17.316406 26.046875 17.308594 26.0625 C 17.175781 26.242188 16.964844 26.351562 16.75 26.351562 Z M 17.390625 11 L 17.390625 23.894531 C 17.992188 23.261719 18.820312 22.53125 19.867188 21.898438 C 21.9375 20.65625 25.257812 19.609375 29.617188 21.351562 L 29.617188 7.835938 C 26.332031 6.378906 23.289062 6.453125 20.582031 8.070312 C 18.792969 9.125 17.707031 10.546875 17.390625 11 Z M 17.390625 11 " fill-opacity="1" fill-rule="nonzero"/><g clip-path="url(#7d03deeaa7)"><path fill="#0e675f" d="M 16.75 28.949219 C 15.804688 28.949219 14.894531 28.539062 14.253906 27.835938 C 13.152344 26.601562 11.863281 25.738281 10.425781 25.257812 C 8.53125 24.625 6.378906 24.671875 4.023438 25.394531 C 3.070312 25.691406 2.066406 25.527344 1.269531 24.933594 C 0.480469 24.347656 0.0273438 23.457031 0.0273438 22.472656 L 0.0273438 11.109375 C 0.0273438 10.757812 0.3125 10.472656 0.667969 10.472656 C 1.019531 10.472656 1.304688 10.757812 1.304688 11.109375 L 1.304688 22.472656 C 1.304688 23.039062 1.566406 23.558594 2.03125 23.902344 C 2.492188 24.246094 3.085938 24.347656 3.644531 24.171875 C 6.257812 23.363281 8.671875 23.316406 10.832031 24.042969 C 12.484375 24.597656 13.957031 25.582031 15.210938 26.980469 C 15.601562 27.417969 16.15625 27.667969 16.75 27.667969 C 17.335938 27.667969 17.890625 27.417969 18.289062 26.980469 C 19.542969 25.582031 21.019531 24.597656 22.667969 24.042969 C 24.832031 23.316406 27.242188 23.363281 29.859375 24.171875 C 30.414062 24.347656 31.007812 24.246094 31.472656 23.902344 C 31.925781 23.570312 32.195312 23.050781 32.195312 22.472656 L 32.195312 11.109375 C 32.195312 10.757812 32.484375 10.472656 32.835938 10.472656 C 33.1875 10.472656 33.476562 10.757812 33.476562 11.109375 L 33.476562 22.472656 C 33.476562 23.457031 33.019531 24.355469 32.234375 24.933594 C 31.433594 25.515625 30.421875 25.691406 29.476562 25.394531 C 27.128906 24.664062 24.980469 24.617188 23.078125 25.257812 C 21.640625 25.738281 20.351562 26.601562 19.246094 27.835938 C 18.605469 28.539062 17.695312 28.949219 16.75 28.949219 Z M 16.75 28.949219 " fill-opacity="1" fill-rule="nonzero"/></g></svg>